<svg width="146" height="34" viewBox="0 0 146 34" fill="none" xmlns="http://www.w3.org/2000/svg">
<g clip-path="url(#clip0_1431_18007)">
<path d="M25.5237 6.78935L2.79102 29.5222C2.47249 29.8407 2.05442 30 1.63636 30C1.21829 30 0.800224 29.8407 0.481697 29.5222C-0.155357 28.8851 -0.155357 27.8499 0.481697 27.2129L23.2144 4.47779C23.8514 3.84074 24.8866 3.84074 25.5237 4.47779C26.1607 5.11485 26.1607 6.15008 25.5237 6.78714V6.78935Z" fill="#3CBDFF"/>
<path d="M17.3101 4.47779C16.673 3.84074 15.6378 3.84074 15.0008 4.47779L9.13235 10.3463V5.63246C9.13235 4.73218 8.40018 4 7.49769 4C6.59519 4 5.86523 4.73218 5.86523 5.63246V18.2321L17.3101 6.78935C17.9471 6.15229 17.9471 5.11707 17.3101 4.48001V4.47779Z" fill="#00FFA7"/>
<path d="M0.00442408 24.1182L3.28046 20.8423L3.27161 16.2324V5.63246C3.27161 4.73218 2.53942 4 1.63912 4C1.63912 4 1.63912 4 1.63691 4C1.63691 4 1.63691 4 1.6347 4C0.732186 4 0 4.73218 0 5.63246V19.024C0 19.0572 0.00221204 19.0903 0.00442408 19.1213V24.116V24.1182Z" fill="#FFD119"/>
<path d="M23.212 12.5686L8.56861 27.2121C7.93156 27.8492 7.93156 28.8844 8.56861 29.5215C8.88714 29.84 9.3052 29.9993 9.72327 29.9993C10.1413 29.9993 10.5594 29.84 10.8779 29.5215L25.5213 14.878C26.1584 14.2409 26.1584 13.2057 25.5213 12.5686C24.8843 11.9316 23.8491 11.9316 23.212 12.5686Z" fill="#3A7CED"/>
<path d="M23.2133 20.5755L16.5794 27.2093C15.9423 27.8463 15.9423 28.8816 16.5794 29.5186C16.8979 29.8371 17.316 29.9964 17.734 29.9964C18.1521 29.9964 18.5702 29.8371 18.8887 29.5186L25.5226 22.8848C26.1597 22.2477 26.1597 21.2125 25.5226 20.5755C24.8856 19.9384 23.8503 19.9384 23.2133 20.5755Z" fill="#861FAC"/>
<path d="M38.406 3.14498C38.1341 2.84424 38 2.4741 38 2.0307C38 1.54488 38.145 1.16703 38.4387 0.900989C38.7287 0.634949 39.0731 0.5 39.4719 0.5C39.8706 0.5 40.2078 0.634949 40.487 0.900989C40.7697 1.16703 40.9075 1.54488 40.9075 2.0307C40.9075 2.4741 40.7661 2.84424 40.487 3.14498C40.2042 3.44573 39.8561 3.59224 39.4392 3.59224C39.0223 3.59224 38.6779 3.44187 38.406 3.14498ZM38.7976 25.3343C38.6199 25.1454 38.5329 24.9063 38.5329 24.621V8.41953C38.5329 8.11108 38.6199 7.86431 38.7976 7.68695C38.9752 7.50959 39.2 7.42091 39.4719 7.42091C39.7619 7.42091 39.9939 7.50959 40.1607 7.68695C40.3274 7.86431 40.4108 8.10722 40.4108 8.41953V24.621C40.4108 24.9102 40.3274 25.1492 40.1607 25.3343C39.9939 25.5232 39.7655 25.6158 39.4719 25.6158C39.2 25.6158 38.9752 25.5232 38.7976 25.3343Z" fill="#040E20"/>
<path d="M60.0194 8.32041C60.0194 8.47464 59.9977 8.59802 59.9578 8.6867L52.9211 24.9537C52.7108 25.4203 52.3773 25.6516 51.9205 25.6516C51.732 25.6516 51.5616 25.5899 51.4057 25.4704C51.2498 25.347 51.1302 25.1774 51.0468 24.9537L43.9159 8.7214C43.8724 8.63272 43.8542 8.50934 43.8542 8.35511C43.8542 7.95412 44.0319 7.6688 44.3872 7.49144C44.5141 7.4259 44.6373 7.3912 44.7642 7.3912C45.1195 7.3912 45.3805 7.58012 45.5473 7.95798L51.9604 22.729L58.2793 7.92713C58.4461 7.54928 58.7179 7.36035 59.0913 7.36035C59.2364 7.36035 59.3741 7.39505 59.4974 7.4606C59.8527 7.63796 60.0303 7.92713 60.0303 8.32427L60.0194 8.32041Z" fill="#040E20"/>
<path d="M65.242 24.602C63.908 23.7923 62.8603 22.6781 62.099 21.2592C61.3377 19.8403 60.957 18.2672 60.957 16.536C60.957 14.8048 61.3377 13.197 62.099 11.7781C62.8603 10.3592 63.908 9.24493 65.242 8.43524C66.5761 7.62555 68.0661 7.2207 69.7155 7.2207C71.365 7.2207 72.8224 7.62555 74.1564 8.43524C75.4905 9.24493 76.5382 10.3592 77.2995 11.7781C78.0608 13.197 78.4414 14.7817 78.4414 16.536C78.4414 18.2903 78.0608 19.8403 77.2995 21.2592C76.5382 22.6781 75.4905 23.7923 74.1564 24.602C72.8224 25.4117 71.3396 25.8166 69.7155 25.8166C68.0915 25.8166 66.5761 25.4117 65.242 24.602ZM73.2175 22.9904C74.2616 22.3465 75.0772 21.4597 75.6718 20.33C76.2663 19.2002 76.5636 17.9356 76.5636 16.536C76.5636 15.1364 76.2663 13.8756 75.6718 12.742C75.0772 11.6123 74.2579 10.7178 73.2175 10.0623C72.1734 9.40686 71.0061 9.08299 69.7155 9.08299C68.425 9.08299 67.254 9.41072 66.2136 10.0623C65.1695 10.7178 64.3466 11.6084 63.7412 12.742C63.1358 13.8717 62.8349 15.1364 62.8349 16.536C62.8349 17.9356 63.1358 19.1964 63.7412 20.33C64.3466 21.4597 65.1695 22.3465 66.2136 22.9904C67.254 23.6343 68.425 23.9543 69.7155 23.9543C71.0061 23.9543 72.1734 23.6343 73.2175 22.9904Z" fill="#040E20"/>
<path d="M96.7089 8.22016C96.7089 8.30884 96.6654 8.46307 96.5821 8.6867L86.0723 32.9041C85.8838 33.3012 85.6446 33.5017 85.3545 33.5017C85.2313 33.5017 85.0826 33.467 84.9159 33.4015C84.5207 33.2241 84.3213 32.9697 84.3213 32.6381C84.3213 32.5494 84.3648 32.3952 84.4482 32.1715L87.5768 24.9846C87.5551 24.9614 87.5152 24.8843 87.45 24.7532L80.6018 8.78695C80.5184 8.60959 80.4785 8.43223 80.4785 8.25486C80.4785 7.92328 80.6562 7.6688 81.0114 7.49144C81.1782 7.40276 81.345 7.36035 81.5117 7.36035C81.8235 7.36035 82.0628 7.54928 82.2295 7.92713L88.5774 22.6982L94.9579 7.96183C95.1464 7.5647 95.3857 7.36421 95.6757 7.36421C95.8208 7.36421 95.9694 7.39891 96.1144 7.46445C96.5096 7.64182 96.7089 7.89629 96.7089 8.22788V8.22016Z" fill="#040E20"/>
<path d="M110.53 8.43524C111.864 9.24493 112.912 10.3592 113.673 11.7781C114.435 13.197 114.815 14.7817 114.815 16.536V24.6213C114.815 24.9105 114.732 25.1495 114.565 25.3346C114.398 25.5235 114.17 25.6161 113.876 25.6161C113.604 25.6161 113.38 25.5235 113.202 25.3346C113.024 25.1457 112.937 24.9066 112.937 24.6213V22.0264C112.249 23.2024 111.306 24.1278 110.106 24.8025C108.906 25.4811 107.568 25.8166 106.086 25.8166C104.44 25.8166 102.946 25.4117 101.612 24.602C100.278 23.7923 99.2304 22.678 98.4691 21.2592C97.7078 19.8403 97.3271 18.2672 97.3271 16.536C97.3271 14.8048 97.7078 13.197 98.4691 11.7781C99.2304 10.3592 100.278 9.24493 101.612 8.43524C102.946 7.62555 104.436 7.2207 106.086 7.2207C107.735 7.2207 109.192 7.62555 110.527 8.43524H110.53ZM109.591 22.9904C110.635 22.3465 111.451 21.4597 112.046 20.33C112.64 19.2002 112.937 17.9356 112.937 16.536C112.937 15.1364 112.64 13.8756 112.046 12.742C111.451 11.6123 110.632 10.7178 109.591 10.0623C108.547 9.40686 107.38 9.08299 106.089 9.08299C104.799 9.08299 103.628 9.41072 102.587 10.0623C101.543 10.7178 100.72 11.6084 100.115 12.742C99.5095 13.8717 99.2086 15.1364 99.2086 16.536C99.2086 17.9356 99.5095 19.1964 100.115 20.33C100.72 21.4597 101.543 22.3465 102.587 22.9904C103.631 23.6343 104.799 23.9543 106.089 23.9543C107.38 23.9543 108.551 23.6343 109.591 22.9904Z" fill="#040E20"/>
<path d="M130.779 8.18519C131.979 8.85222 132.914 9.81999 133.592 11.0962C134.27 12.3724 134.607 13.8954 134.607 15.669V24.618C134.607 24.9072 134.516 25.1462 134.342 25.3313C134.168 25.5164 133.94 25.6128 133.672 25.6128C133.403 25.6128 133.175 25.5202 133.001 25.3313C132.823 25.1424 132.736 24.9033 132.736 24.618V15.669C132.736 13.5638 132.178 11.956 131.062 10.8456C129.945 9.73517 128.491 9.18381 126.7 9.18381C125.595 9.18381 124.59 9.41129 123.68 9.86626C122.774 10.3212 122.06 10.9536 121.538 11.7632C121.016 12.5729 120.755 13.4636 120.755 14.4429V24.6219C120.755 24.9111 120.671 25.1501 120.505 25.3352C120.338 25.5241 120.11 25.6166 119.816 25.6166C119.544 25.6166 119.319 25.5241 119.142 25.3352C118.964 25.1462 118.877 24.9072 118.877 24.6219V8.42039C118.877 8.11193 118.964 7.86517 119.142 7.68781C119.319 7.51045 119.544 7.42177 119.816 7.42177C120.106 7.42177 120.338 7.51045 120.505 7.68781C120.671 7.86517 120.755 8.10808 120.755 8.42039V10.1516C121.462 9.22236 122.328 8.49364 123.351 7.97313C124.373 7.45262 125.486 7.19043 126.697 7.19043C128.219 7.19043 129.579 7.52202 130.779 8.18905V8.18519Z" fill="#040E20"/>
<path d="M147.736 23.8684C147.914 24.0573 148.001 24.3079 148.001 24.6164C148.001 24.9055 147.91 25.1446 147.736 25.3297C147.562 25.5147 147.323 25.6111 147.033 25.6111H146.315C145.169 25.6111 144.147 25.3335 143.251 24.7783C142.356 24.2231 141.656 23.4635 141.156 22.4996C140.656 21.5357 140.406 20.4445 140.406 19.2223V9.87617H137.966C137.716 9.87617 137.513 9.79134 137.357 9.62555C137.201 9.45976 137.121 9.24384 137.121 8.9778C137.121 8.71176 137.201 8.49584 137.357 8.33005C137.513 8.16425 137.716 8.07943 137.966 8.07943H140.406V2.65837C140.406 2.34606 140.493 2.0993 140.67 1.91037C140.848 1.72144 141.073 1.62891 141.341 1.62891C141.631 1.62891 141.867 1.7253 142.044 1.91037C142.222 2.0993 142.309 2.34992 142.309 2.65837V8.07943H146.438C146.688 8.07943 146.891 8.16425 147.047 8.33005C147.203 8.49584 147.283 8.71176 147.283 8.9778C147.283 9.24384 147.203 9.45976 147.047 9.62555C146.891 9.79134 146.688 9.87617 146.438 9.87617H142.309V19.2223C142.309 20.5101 142.682 21.555 143.436 22.3647C144.187 23.1743 145.158 23.5792 146.344 23.5792H147.033C147.326 23.5792 147.558 23.6756 147.736 23.8607V23.8684Z" fill="#040E20"/>
</g>
<defs>
<clipPath id="clip0_1431_18007">
<rect width="146" height="33" fill="white" transform="translate(0 0.5)"/>
</clipPath>
</defs>
</svg>
